<?xml version="1.0" encoding="UTF-8" standalone="no"?>
<svg
xmlns="http://www.w3.org/2000/svg"
version="1.0"
width="800" height="800"
id="4-cube.svg">
<g style="stroke:#000000;stroke-width:3;stroke-opacity:1.0;">
<line x1="779.582" y1="400.000" x2="668.405" y2="668.405"/>
<line x1="511.177" y1="511.177" x2="400.000" y2="779.582"/>
<line x1="779.582" y1="400.000" x2="511.177" y2="511.177"/>
<line x1="668.405" y1="668.405" x2="400.000" y2="779.582"/>
<line x1="511.177" y1="288.823" x2="400.000" y2="557.228"/>
<line x1="242.772" y1="400.000" x2="131.595" y2="668.405"/>
<line x1="511.177" y1="288.823" x2="242.772" y2="400.000"/>
<line x1="400.000" y1="557.228" x2="131.595" y2="668.405"/>
<line x1="779.582" y1="400.000" x2="511.177" y2="288.823"/>
<line x1="668.405" y1="668.405" x2="400.000" y2="557.228"/>
<line x1="511.177" y1="511.177" x2="242.772" y2="400.000"/>
<line x1="400.000" y1="779.582" x2="131.595" y2="668.405"/>
<line x1="668.405" y1="131.595" x2="557.228" y2="400.000"/>
<line x1="400.000" y1="242.772" x2="288.823" y2="511.177"/>
<line x1="668.405" y1="131.595" x2="400.000" y2="242.772"/>
<line x1="557.228" y1="400.000" x2="288.823" y2="511.177"/>
<line x1="400.000" y1="20.418" x2="288.823" y2="288.823"/>
<line x1="131.595" y1="131.595" x2="20.418" y2="400.000"/>
<line x1="400.000" y1="20.418" x2="131.595" y2="131.595"/>
<line x1="288.823" y1="288.823" x2="20.418" y2="400.000"/>
<line x1="668.405" y1="131.595" x2="400.000" y2="20.418"/>
<line x1="557.228" y1="400.000" x2="288.823" y2="288.823"/>
<line x1="400.000" y1="242.772" x2="131.595" y2="131.595"/>
<line x1="288.823" y1="511.177" x2="20.418" y2="400.000"/>
<line x1="779.582" y1="400.000" x2="668.405" y2="131.595"/>
<line x1="668.405" y1="668.405" x2="557.228" y2="400.000"/>
<line x1="511.177" y1="511.177" x2="400.000" y2="242.772"/>
<line x1="400.000" y1="779.582" x2="288.823" y2="511.177"/>
<line x1="511.177" y1="288.823" x2="400.000" y2="20.418"/>
<line x1="400.000" y1="557.228" x2="288.823" y2="288.823"/>
<line x1="242.772" y1="400.000" x2="131.595" y2="131.595"/>
<line x1="131.595" y1="668.405" x2="20.418" y2="400.000"/>
</g>
<g style="stroke:#000000;stroke-width:3;fill:#ff0000">
<circle cx="779.582" cy="400.000" r="12"/>
<circle cx="668.405" cy="668.405" r="12"/>
<circle cx="511.177" cy="511.177" r="12"/>
<circle cx="400.000" cy="779.582" r="12"/>
<circle cx="511.177" cy="288.823" r="12"/>
<circle cx="400.000" cy="557.228" r="12"/>
<circle cx="242.772" cy="400.000" r="12"/>
<circle cx="131.595" cy="668.405" r="12"/>
<circle cx="668.405" cy="131.595" r="12"/>
<circle cx="557.228" cy="400.000" r="12"/>
<circle cx="400.000" cy="242.772" r="12"/>
<circle cx="288.823" cy="511.177" r="12"/>
<circle cx="400.000" cy="20.418" r="12"/>
<circle cx="288.823" cy="288.823" r="12"/>
<circle cx="131.595" cy="131.595" r="12"/>
<circle cx="20.418" cy="400.000" r="12"/>
</g>
</svg>
