<?xml version="1.0" encoding="UTF-8" standalone="no"?>
<svg
xmlns="http://www.w3.org/2000/svg"
version="1.0"
width="800" height="800"
id="7-cube.svg">
<g style="stroke:#000000;stroke-width:2;stroke-opacity:1.0;">
<line x1="779.582" y1="400.000" x2="741.992" y2="564.695"/>
<line x1="674.256" y1="532.075" x2="636.666" y2="696.769"/>
<line x1="779.582" y1="400.000" x2="674.256" y2="532.075"/>
<line x1="741.992" y1="564.695" x2="636.666" y2="696.769"/>
<line x1="627.382" y1="473.296" x2="589.791" y2="637.991"/>
<line x1="522.055" y1="605.371" x2="484.465" y2="770.065"/>
<line x1="627.382" y1="473.296" x2="522.055" y2="605.371"/>
<line x1="589.791" y1="637.991" x2="484.465" y2="770.065"/>
<line x1="779.582" y1="400.000" x2="627.382" y2="473.296"/>
<line x1="741.992" y1="564.695" x2="589.791" y2="637.991"/>
<line x1="674.256" y1="532.075" x2="522.055" y2="605.371"/>
<line x1="636.666" y1="696.769" x2="484.465" y2="770.065"/>
<line x1="610.652" y1="400.000" x2="573.062" y2="564.695"/>
<line x1="505.326" y1="532.075" x2="467.736" y2="696.769"/>
<line x1="610.652" y1="400.000" x2="505.326" y2="532.075"/>
<line x1="573.062" y1="564.695" x2="467.736" y2="696.769"/>
<line x1="458.452" y1="473.296" x2="420.861" y2="637.991"/>
<line x1="353.125" y1="605.371" x2="315.535" y2="770.065"/>
<line x1="458.452" y1="473.296" x2="353.125" y2="605.371"/>
<line x1="420.861" y1="637.991" x2="315.535" y2="770.065"/>
<line x1="610.652" y1="400.000" x2="458.452" y2="473.296"/>
<line x1="573.062" y1="564.695" x2="420.861" y2="637.991"/>
<line x1="505.326" y1="532.075" x2="353.125" y2="605.371"/>
<line x1="467.736" y1="696.769" x2="315.535" y2="770.065"/>
<line x1="779.582" y1="400.000" x2="610.652" y2="400.000"/>
<line x1="741.992" y1="564.695" x2="573.062" y2="564.695"/>
<line x1="674.256" y1="532.075" x2="505.326" y2="532.075"/>
<line x1="636.666" y1="696.769" x2="467.736" y2="696.769"/>
<line x1="627.382" y1="473.296" x2="458.452" y2="473.296"/>
<line x1="589.791" y1="637.991" x2="420.861" y2="637.991"/>
<line x1="522.055" y1="605.371" x2="353.125" y2="605.371"/>
<line x1="484.465" y1="770.065" x2="315.535" y2="770.065"/>
<line x1="627.382" y1="326.704" x2="589.791" y2="491.399"/>
<line x1="522.055" y1="458.779" x2="484.465" y2="623.473"/>
<line x1="627.382" y1="326.704" x2="522.055" y2="458.779"/>
<line x1="589.791" y1="491.399" x2="484.465" y2="623.473"/>
<line x1="475.181" y1="400.000" x2="437.590" y2="564.695"/>
<line x1="369.855" y1="532.075" x2="332.264" y2="696.769"/>
<line x1="475.181" y1="400.000" x2="369.855" y2="532.075"/>
<line x1="437.590" y1="564.695" x2="332.264" y2="696.769"/>
<line x1="627.382" y1="326.704" x2="475.181" y2="400.000"/>
<line x1="589.791" y1="491.399" x2="437.590" y2="564.695"/>
<line x1="522.055" y1="458.779" x2="369.855" y2="532.075"/>
<line x1="484.465" y1="623.473" x2="332.264" y2="696.769"/>
<line x1="458.452" y1="326.704" x2="420.861" y2="491.399"/>
<line x1="353.125" y1="458.779" x2="315.535" y2="623.473"/>
<line x1="458.452" y1="326.704" x2="353.125" y2="458.779"/>
<line x1="420.861" y1="491.399" x2="315.535" y2="623.473"/>
<line x1="306.251" y1="400.000" x2="268.660" y2="564.695"/>
<line x1="200.925" y1="532.075" x2="163.334" y2="696.769"/>
<line x1="306.251" y1="400.000" x2="200.925" y2="532.075"/>
<line x1="268.660" y1="564.695" x2="163.334" y2="696.769"/>
<line x1="458.452" y1="326.704" x2="306.251" y2="400.000"/>
<line x1="420.861" y1="491.399" x2="268.660" y2="564.695"/>
<line x1="353.125" y1="458.779" x2="200.925" y2="532.075"/>
<line x1="315.535" y1="623.473" x2="163.334" y2="696.769"/>
<line x1="627.382" y1="326.704" x2="458.452" y2="326.704"/>
<line x1="589.791" y1="491.399" x2="420.861" y2="491.399"/>
<line x1="522.055" y1="458.779" x2="353.125" y2="458.779"/>
<line x1="484.465" y1="623.473" x2="315.535" y2="623.473"/>
<line x1="475.181" y1="400.000" x2="306.251" y2="400.000"/>
<line x1="437.590" y1="564.695" x2="268.660" y2="564.695"/>
<line x1="369.855" y1="532.075" x2="200.925" y2="532.075"/>
<line x1="332.264" y1="696.769" x2="163.334" y2="696.769"/>
<line x1="779.582" y1="400.000" x2="627.382" y2="326.704"/>
<line x1="741.992" y1="564.695" x2="589.791" y2="491.399"/>
<line x1="674.256" y1="532.075" x2="522.055" y2="458.779"/>
<line x1="636.666" y1="696.769" x2="484.465" y2="623.473"/>
<line x1="627.382" y1="473.296" x2="475.181" y2="400.000"/>
<line x1="589.791" y1="637.991" x2="437.590" y2="564.695"/>
<line x1="522.055" y1="605.371" x2="369.855" y2="532.075"/>
<line x1="484.465" y1="770.065" x2="332.264" y2="696.769"/>
<line x1="610.652" y1="400.000" x2="458.452" y2="326.704"/>
<line x1="573.062" y1="564.695" x2="420.861" y2="491.399"/>
<line x1="505.326" y1="532.075" x2="353.125" y2="458.779"/>
<line x1="467.736" y1="696.769" x2="315.535" y2="623.473"/>
<line x1="458.452" y1="473.296" x2="306.251" y2="400.000"/>
<line x1="420.861" y1="637.991" x2="268.660" y2="564.695"/>
<line x1="353.125" y1="605.371" x2="200.925" y2="532.075"/>
<line x1="315.535" y1="770.065" x2="163.334" y2="696.769"/>
<line x1="674.256" y1="267.925" x2="636.666" y2="432.620"/>
<line x1="568.930" y1="400.000" x2="531.340" y2="564.695"/>
<line x1="674.256" y1="267.925" x2="568.930" y2="400.000"/>
<line x1="636.666" y1="432.620" x2="531.340" y2="564.695"/>
<line x1="522.055" y1="341.221" x2="484.465" y2="505.916"/>
<line x1="416.729" y1="473.296" x2="379.139" y2="637.991"/>
<line x1="522.055" y1="341.221" x2="416.729" y2="473.296"/>
<line x1="484.465" y1="505.916" x2="379.139" y2="637.991"/>
<line x1="674.256" y1="267.925" x2="522.055" y2="341.221"/>
<line x1="636.666" y1="432.620" x2="484.465" y2="505.916"/>
<line x1="568.930" y1="400.000" x2="416.729" y2="473.296"/>
<line x1="531.340" y1="564.695" x2="379.139" y2="637.991"/>
<line x1="505.326" y1="267.925" x2="467.736" y2="432.620"/>
<line x1="400.000" y1="400.000" x2="362.410" y2="564.695"/>
<line x1="505.326" y1="267.925" x2="400.000" y2="400.000"/>
<line x1="467.736" y1="432.620" x2="362.410" y2="564.695"/>
<line x1="353.125" y1="341.221" x2="315.535" y2="505.916"/>
<line x1="247.799" y1="473.296" x2="210.209" y2="637.991"/>
<line x1="353.125" y1="341.221" x2="247.799" y2="473.296"/>
<line x1="315.535" y1="505.916" x2="210.209" y2="637.991"/>
<line x1="505.326" y1="267.925" x2="353.125" y2="341.221"/>
<line x1="467.736" y1="432.620" x2="315.535" y2="505.916"/>
<line x1="400.000" y1="400.000" x2="247.799" y2="473.296"/>
<line x1="362.410" y1="564.695" x2="210.209" y2="637.991"/>
<line x1="674.256" y1="267.925" x2="505.326" y2="267.925"/>
<line x1="636.666" y1="432.620" x2="467.736" y2="432.620"/>
<line x1="568.930" y1="400.000" x2="400.000" y2="400.000"/>
<line x1="531.340" y1="564.695" x2="362.410" y2="564.695"/>
<line x1="522.055" y1="341.221" x2="353.125" y2="341.221"/>
<line x1="484.465" y1="505.916" x2="315.535" y2="505.916"/>
<line x1="416.729" y1="473.296" x2="247.799" y2="473.296"/>
<line x1="379.139" y1="637.991" x2="210.209" y2="637.991"/>
<line x1="522.055" y1="194.629" x2="484.465" y2="359.324"/>
<line x1="416.729" y1="326.704" x2="379.139" y2="491.399"/>
<line x1="522.055" y1="194.629" x2="416.729" y2="326.704"/>
<line x1="484.465" y1="359.324" x2="379.139" y2="491.399"/>
<line x1="369.855" y1="267.925" x2="332.264" y2="432.620"/>
<line x1="264.529" y1="400.000" x2="226.938" y2="564.695"/>
<line x1="369.855" y1="267.925" x2="264.529" y2="400.000"/>
<line x1="332.264" y1="432.620" x2="226.938" y2="564.695"/>
<line x1="522.055" y1="194.629" x2="369.855" y2="267.925"/>
<line x1="484.465" y1="359.324" x2="332.264" y2="432.620"/>
<line x1="416.729" y1="326.704" x2="264.529" y2="400.000"/>
<line x1="379.139" y1="491.399" x2="226.938" y2="564.695"/>
<line x1="353.125" y1="194.629" x2="315.535" y2="359.324"/>
<line x1="247.799" y1="326.704" x2="210.209" y2="491.399"/>
<line x1="353.125" y1="194.629" x2="247.799" y2="326.704"/>
<line x1="315.535" y1="359.324" x2="210.209" y2="491.399"/>
<line x1="200.925" y1="267.925" x2="163.334" y2="432.620"/>
<line x1="95.599" y1="400.000" x2="58.008" y2="564.695"/>
<line x1="200.925" y1="267.925" x2="95.599" y2="400.000"/>
<line x1="163.334" y1="432.620" x2="58.008" y2="564.695"/>
<line x1="353.125" y1="194.629" x2="200.925" y2="267.925"/>
<line x1="315.535" y1="359.324" x2="163.334" y2="432.620"/>
<line x1="247.799" y1="326.704" x2="95.599" y2="400.000"/>
<line x1="210.209" y1="491.399" x2="58.008" y2="564.695"/>
<line x1="522.055" y1="194.629" x2="353.125" y2="194.629"/>
<line x1="484.465" y1="359.324" x2="315.535" y2="359.324"/>
<line x1="416.729" y1="326.704" x2="247.799" y2="326.704"/>
<line x1="379.139" y1="491.399" x2="210.209" y2="491.399"/>
<line x1="369.855" y1="267.925" x2="200.925" y2="267.925"/>
<line x1="332.264" y1="432.620" x2="163.334" y2="432.620"/>
<line x1="264.529" y1="400.000" x2="95.599" y2="400.000"/>
<line x1="226.938" y1="564.695" x2="58.008" y2="564.695"/>
<line x1="674.256" y1="267.925" x2="522.055" y2="194.629"/>
<line x1="636.666" y1="432.620" x2="484.465" y2="359.324"/>
<line x1="568.930" y1="400.000" x2="416.729" y2="326.704"/>
<line x1="531.340" y1="564.695" x2="379.139" y2="491.399"/>
<line x1="522.055" y1="341.221" x2="369.855" y2="267.925"/>
<line x1="484.465" y1="505.916" x2="332.264" y2="432.620"/>
<line x1="416.729" y1="473.296" x2="264.529" y2="400.000"/>
<line x1="379.139" y1="637.991" x2="226.938" y2="564.695"/>
<line x1="505.326" y1="267.925" x2="353.125" y2="194.629"/>
<line x1="467.736" y1="432.620" x2="315.535" y2="359.324"/>
<line x1="400.000" y1="400.000" x2="247.799" y2="326.704"/>
<line x1="362.410" y1="564.695" x2="210.209" y2="491.399"/>
<line x1="353.125" y1="341.221" x2="200.925" y2="267.925"/>
<line x1="315.535" y1="505.916" x2="163.334" y2="432.620"/>
<line x1="247.799" y1="473.296" x2="95.599" y2="400.000"/>
<line x1="210.209" y1="637.991" x2="58.008" y2="564.695"/>
<line x1="779.582" y1="400.000" x2="674.256" y2="267.925"/>
<line x1="741.992" y1="564.695" x2="636.666" y2="432.620"/>
<line x1="674.256" y1="532.075" x2="568.930" y2="400.000"/>
<line x1="636.666" y1="696.769" x2="531.340" y2="564.695"/>
<line x1="627.382" y1="473.296" x2="522.055" y2="341.221"/>
<line x1="589.791" y1="637.991" x2="484.465" y2="505.916"/>
<line x1="522.055" y1="605.371" x2="416.729" y2="473.296"/>
<line x1="484.465" y1="770.065" x2="379.139" y2="637.991"/>
<line x1="610.652" y1="400.000" x2="505.326" y2="267.925"/>
<line x1="573.062" y1="564.695" x2="467.736" y2="432.620"/>
<line x1="505.326" y1="532.075" x2="400.000" y2="400.000"/>
<line x1="467.736" y1="696.769" x2="362.410" y2="564.695"/>
<line x1="458.452" y1="473.296" x2="353.125" y2="341.221"/>
<line x1="420.861" y1="637.991" x2="315.535" y2="505.916"/>
<line x1="353.125" y1="605.371" x2="247.799" y2="473.296"/>
<line x1="315.535" y1="770.065" x2="210.209" y2="637.991"/>
<line x1="627.382" y1="326.704" x2="522.055" y2="194.629"/>
<line x1="589.791" y1="491.399" x2="484.465" y2="359.324"/>
<line x1="522.055" y1="458.779" x2="416.729" y2="326.704"/>
<line x1="484.465" y1="623.473" x2="379.139" y2="491.399"/>
<line x1="475.181" y1="400.000" x2="369.855" y2="267.925"/>
<line x1="437.590" y1="564.695" x2="332.264" y2="432.620"/>
<line x1="369.855" y1="532.075" x2="264.529" y2="400.000"/>
<line x1="332.264" y1="696.769" x2="226.938" y2="564.695"/>
<line x1="458.452" y1="326.704" x2="353.125" y2="194.629"/>
<line x1="420.861" y1="491.399" x2="315.535" y2="359.324"/>
<line x1="353.125" y1="458.779" x2="247.799" y2="326.704"/>
<line x1="315.535" y1="623.473" x2="210.209" y2="491.399"/>
<line x1="306.251" y1="400.000" x2="200.925" y2="267.925"/>
<line x1="268.660" y1="564.695" x2="163.334" y2="432.620"/>
<line x1="200.925" y1="532.075" x2="95.599" y2="400.000"/>
<line x1="163.334" y1="696.769" x2="58.008" y2="564.695"/>
<line x1="741.992" y1="235.305" x2="704.401" y2="400.000"/>
<line x1="636.666" y1="367.380" x2="599.075" y2="532.075"/>
<line x1="741.992" y1="235.305" x2="636.666" y2="367.380"/>
<line x1="704.401" y1="400.000" x2="599.075" y2="532.075"/>
<line x1="589.791" y1="308.601" x2="552.201" y2="473.296"/>
<line x1="484.465" y1="440.676" x2="446.875" y2="605.371"/>
<line x1="589.791" y1="308.601" x2="484.465" y2="440.676"/>
<line x1="552.201" y1="473.296" x2="446.875" y2="605.371"/>
<line x1="741.992" y1="235.305" x2="589.791" y2="308.601"/>
<line x1="704.401" y1="400.000" x2="552.201" y2="473.296"/>
<line x1="636.666" y1="367.380" x2="484.465" y2="440.676"/>
<line x1="599.075" y1="532.075" x2="446.875" y2="605.371"/>
<line x1="573.062" y1="235.305" x2="535.471" y2="400.000"/>
<line x1="467.736" y1="367.380" x2="430.145" y2="532.075"/>
<line x1="573.062" y1="235.305" x2="467.736" y2="367.380"/>
<line x1="535.471" y1="400.000" x2="430.145" y2="532.075"/>
<line x1="420.861" y1="308.601" x2="383.271" y2="473.296"/>
<line x1="315.535" y1="440.676" x2="277.945" y2="605.371"/>
<line x1="420.861" y1="308.601" x2="315.535" y2="440.676"/>
<line x1="383.271" y1="473.296" x2="277.945" y2="605.371"/>
<line x1="573.062" y1="235.305" x2="420.861" y2="308.601"/>
<line x1="535.471" y1="400.000" x2="383.271" y2="473.296"/>
<line x1="467.736" y1="367.380" x2="315.535" y2="440.676"/>
<line x1="430.145" y1="532.075" x2="277.945" y2="605.371"/>
<line x1="741.992" y1="235.305" x2="573.062" y2="235.305"/>
<line x1="704.401" y1="400.000" x2="535.471" y2="400.000"/>
<line x1="636.666" y1="367.380" x2="467.736" y2="367.380"/>
<line x1="599.075" y1="532.075" x2="430.145" y2="532.075"/>
<line x1="589.791" y1="308.601" x2="420.861" y2="308.601"/>
<line x1="552.201" y1="473.296" x2="383.271" y2="473.296"/>
<line x1="484.465" y1="440.676" x2="315.535" y2="440.676"/>
<line x1="446.875" y1="605.371" x2="277.945" y2="605.371"/>
<line x1="589.791" y1="162.009" x2="552.201" y2="326.704"/>
<line x1="484.465" y1="294.084" x2="446.875" y2="458.779"/>
<line x1="589.791" y1="162.009" x2="484.465" y2="294.084"/>
<line x1="552.201" y1="326.704" x2="446.875" y2="458.779"/>
<line x1="437.590" y1="235.305" x2="400.000" y2="400.000"/>
<line x1="332.264" y1="367.380" x2="294.674" y2="532.075"/>
<line x1="437.590" y1="235.305" x2="332.264" y2="367.380"/>
<line x1="400.000" y1="400.000" x2="294.674" y2="532.075"/>
<line x1="589.791" y1="162.009" x2="437.590" y2="235.305"/>
<line x1="552.201" y1="326.704" x2="400.000" y2="400.000"/>
<line x1="484.465" y1="294.084" x2="332.264" y2="367.380"/>
<line x1="446.875" y1="458.779" x2="294.674" y2="532.075"/>
<line x1="420.861" y1="162.009" x2="383.271" y2="326.704"/>
<line x1="315.535" y1="294.084" x2="277.945" y2="458.779"/>
<line x1="420.861" y1="162.009" x2="315.535" y2="294.084"/>
<line x1="383.271" y1="326.704" x2="277.945" y2="458.779"/>
<line x1="268.660" y1="235.305" x2="231.070" y2="400.000"/>
<line x1="163.334" y1="367.380" x2="125.744" y2="532.075"/>
<line x1="268.660" y1="235.305" x2="163.334" y2="367.380"/>
<line x1="231.070" y1="400.000" x2="125.744" y2="532.075"/>
<line x1="420.861" y1="162.009" x2="268.660" y2="235.305"/>
<line x1="383.271" y1="326.704" x2="231.070" y2="400.000"/>
<line x1="315.535" y1="294.084" x2="163.334" y2="367.380"/>
<line x1="277.945" y1="458.779" x2="125.744" y2="532.075"/>
<line x1="589.791" y1="162.009" x2="420.861" y2="162.009"/>
<line x1="552.201" y1="326.704" x2="383.271" y2="326.704"/>
<line x1="484.465" y1="294.084" x2="315.535" y2="294.084"/>
<line x1="446.875" y1="458.779" x2="277.945" y2="458.779"/>
<line x1="437.590" y1="235.305" x2="268.660" y2="235.305"/>
<line x1="400.000" y1="400.000" x2="231.070" y2="400.000"/>
<line x1="332.264" y1="367.380" x2="163.334" y2="367.380"/>
<line x1="294.674" y1="532.075" x2="125.744" y2="532.075"/>
<line x1="741.992" y1="235.305" x2="589.791" y2="162.009"/>
<line x1="704.401" y1="400.000" x2="552.201" y2="326.704"/>
<line x1="636.666" y1="367.380" x2="484.465" y2="294.084"/>
<line x1="599.075" y1="532.075" x2="446.875" y2="458.779"/>
<line x1="589.791" y1="308.601" x2="437.590" y2="235.305"/>
<line x1="552.201" y1="473.296" x2="400.000" y2="400.000"/>
<line x1="484.465" y1="440.676" x2="332.264" y2="367.380"/>
<line x1="446.875" y1="605.371" x2="294.674" y2="532.075"/>
<line x1="573.062" y1="235.305" x2="420.861" y2="162.009"/>
<line x1="535.471" y1="400.000" x2="383.271" y2="326.704"/>
<line x1="467.736" y1="367.380" x2="315.535" y2="294.084"/>
<line x1="430.145" y1="532.075" x2="277.945" y2="458.779"/>
<line x1="420.861" y1="308.601" x2="268.660" y2="235.305"/>
<line x1="383.271" y1="473.296" x2="231.070" y2="400.000"/>
<line x1="315.535" y1="440.676" x2="163.334" y2="367.380"/>
<line x1="277.945" y1="605.371" x2="125.744" y2="532.075"/>
<line x1="636.666" y1="103.231" x2="599.075" y2="267.925"/>
<line x1="531.340" y1="235.305" x2="493.749" y2="400.000"/>
<line x1="636.666" y1="103.231" x2="531.340" y2="235.305"/>
<line x1="599.075" y1="267.925" x2="493.749" y2="400.000"/>
<line x1="484.465" y1="176.527" x2="446.875" y2="341.221"/>
<line x1="379.139" y1="308.601" x2="341.548" y2="473.296"/>
<line x1="484.465" y1="176.527" x2="379.139" y2="308.601"/>
<line x1="446.875" y1="341.221" x2="341.548" y2="473.296"/>
<line x1="636.666" y1="103.231" x2="484.465" y2="176.527"/>
<line x1="599.075" y1="267.925" x2="446.875" y2="341.221"/>
<line x1="531.340" y1="235.305" x2="379.139" y2="308.601"/>
<line x1="493.749" y1="400.000" x2="341.548" y2="473.296"/>
<line x1="467.736" y1="103.231" x2="430.145" y2="267.925"/>
<line x1="362.410" y1="235.305" x2="324.819" y2="400.000"/>
<line x1="467.736" y1="103.231" x2="362.410" y2="235.305"/>
<line x1="430.145" y1="267.925" x2="324.819" y2="400.000"/>
<line x1="315.535" y1="176.527" x2="277.945" y2="341.221"/>
<line x1="210.209" y1="308.601" x2="172.618" y2="473.296"/>
<line x1="315.535" y1="176.527" x2="210.209" y2="308.601"/>
<line x1="277.945" y1="341.221" x2="172.618" y2="473.296"/>
<line x1="467.736" y1="103.231" x2="315.535" y2="176.527"/>
<line x1="430.145" y1="267.925" x2="277.945" y2="341.221"/>
<line x1="362.410" y1="235.305" x2="210.209" y2="308.601"/>
<line x1="324.819" y1="400.000" x2="172.618" y2="473.296"/>
<line x1="636.666" y1="103.231" x2="467.736" y2="103.231"/>
<line x1="599.075" y1="267.925" x2="430.145" y2="267.925"/>
<line x1="531.340" y1="235.305" x2="362.410" y2="235.305"/>
<line x1="493.749" y1="400.000" x2="324.819" y2="400.000"/>
<line x1="484.465" y1="176.527" x2="315.535" y2="176.527"/>
<line x1="446.875" y1="341.221" x2="277.945" y2="341.221"/>
<line x1="379.139" y1="308.601" x2="210.209" y2="308.601"/>
<line x1="341.548" y1="473.296" x2="172.618" y2="473.296"/>
<line x1="484.465" y1="29.935" x2="446.875" y2="194.629"/>
<line x1="379.139" y1="162.009" x2="341.548" y2="326.704"/>
<line x1="484.465" y1="29.935" x2="379.139" y2="162.009"/>
<line x1="446.875" y1="194.629" x2="341.548" y2="326.704"/>
<line x1="332.264" y1="103.231" x2="294.674" y2="267.925"/>
<line x1="226.938" y1="235.305" x2="189.348" y2="400.000"/>
<line x1="332.264" y1="103.231" x2="226.938" y2="235.305"/>
<line x1="294.674" y1="267.925" x2="189.348" y2="400.000"/>
<line x1="484.465" y1="29.935" x2="332.264" y2="103.231"/>
<line x1="446.875" y1="194.629" x2="294.674" y2="267.925"/>
<line x1="379.139" y1="162.009" x2="226.938" y2="235.305"/>
<line x1="341.548" y1="326.704" x2="189.348" y2="400.000"/>
<line x1="315.535" y1="29.935" x2="277.945" y2="194.629"/>
<line x1="210.209" y1="162.009" x2="172.618" y2="326.704"/>
<line x1="315.535" y1="29.935" x2="210.209" y2="162.009"/>
<line x1="277.945" y1="194.629" x2="172.618" y2="326.704"/>
<line x1="163.334" y1="103.231" x2="125.744" y2="267.925"/>
<line x1="58.008" y1="235.305" x2="20.418" y2="400.000"/>
<line x1="163.334" y1="103.231" x2="58.008" y2="235.305"/>
<line x1="125.744" y1="267.925" x2="20.418" y2="400.000"/>
<line x1="315.535" y1="29.935" x2="163.334" y2="103.231"/>
<line x1="277.945" y1="194.629" x2="125.744" y2="267.925"/>
<line x1="210.209" y1="162.009" x2="58.008" y2="235.305"/>
<line x1="172.618" y1="326.704" x2="20.418" y2="400.000"/>
<line x1="484.465" y1="29.935" x2="315.535" y2="29.935"/>
<line x1="446.875" y1="194.629" x2="277.945" y2="194.629"/>
<line x1="379.139" y1="162.009" x2="210.209" y2="162.009"/>
<line x1="341.548" y1="326.704" x2="172.618" y2="326.704"/>
<line x1="332.264" y1="103.231" x2="163.334" y2="103.231"/>
<line x1="294.674" y1="267.925" x2="125.744" y2="267.925"/>
<line x1="226.938" y1="235.305" x2="58.008" y2="235.305"/>
<line x1="189.348" y1="400.000" x2="20.418" y2="400.000"/>
<line x1="636.666" y1="103.231" x2="484.465" y2="29.935"/>
<line x1="599.075" y1="267.925" x2="446.875" y2="194.629"/>
<line x1="531.340" y1="235.305" x2="379.139" y2="162.009"/>
<line x1="493.749" y1="400.000" x2="341.548" y2="326.704"/>
<line x1="484.465" y1="176.527" x2="332.264" y2="103.231"/>
<line x1="446.875" y1="341.221" x2="294.674" y2="267.925"/>
<line x1="379.139" y1="308.601" x2="226.938" y2="235.305"/>
<line x1="341.548" y1="473.296" x2="189.348" y2="400.000"/>
<line x1="467.736" y1="103.231" x2="315.535" y2="29.935"/>
<line x1="430.145" y1="267.925" x2="277.945" y2="194.629"/>
<line x1="362.410" y1="235.305" x2="210.209" y2="162.009"/>
<line x1="324.819" y1="400.000" x2="172.618" y2="326.704"/>
<line x1="315.535" y1="176.527" x2="163.334" y2="103.231"/>
<line x1="277.945" y1="341.221" x2="125.744" y2="267.925"/>
<line x1="210.209" y1="308.601" x2="58.008" y2="235.305"/>
<line x1="172.618" y1="473.296" x2="20.418" y2="400.000"/>
<line x1="741.992" y1="235.305" x2="636.666" y2="103.231"/>
<line x1="704.401" y1="400.000" x2="599.075" y2="267.925"/>
<line x1="636.666" y1="367.380" x2="531.340" y2="235.305"/>
<line x1="599.075" y1="532.075" x2="493.749" y2="400.000"/>
<line x1="589.791" y1="308.601" x2="484.465" y2="176.527"/>
<line x1="552.201" y1="473.296" x2="446.875" y2="341.221"/>
<line x1="484.465" y1="440.676" x2="379.139" y2="308.601"/>
<line x1="446.875" y1="605.371" x2="341.548" y2="473.296"/>
<line x1="573.062" y1="235.305" x2="467.736" y2="103.231"/>
<line x1="535.471" y1="400.000" x2="430.145" y2="267.925"/>
<line x1="467.736" y1="367.380" x2="362.410" y2="235.305"/>
<line x1="430.145" y1="532.075" x2="324.819" y2="400.000"/>
<line x1="420.861" y1="308.601" x2="315.535" y2="176.527"/>
<line x1="383.271" y1="473.296" x2="277.945" y2="341.221"/>
<line x1="315.535" y1="440.676" x2="210.209" y2="308.601"/>
<line x1="277.945" y1="605.371" x2="172.618" y2="473.296"/>
<line x1="589.791" y1="162.009" x2="484.465" y2="29.935"/>
<line x1="552.201" y1="326.704" x2="446.875" y2="194.629"/>
<line x1="484.465" y1="294.084" x2="379.139" y2="162.009"/>
<line x1="446.875" y1="458.779" x2="341.548" y2="326.704"/>
<line x1="437.590" y1="235.305" x2="332.264" y2="103.231"/>
<line x1="400.000" y1="400.000" x2="294.674" y2="267.925"/>
<line x1="332.264" y1="367.380" x2="226.938" y2="235.305"/>
<line x1="294.674" y1="532.075" x2="189.348" y2="400.000"/>
<line x1="420.861" y1="162.009" x2="315.535" y2="29.935"/>
<line x1="383.271" y1="326.704" x2="277.945" y2="194.629"/>
<line x1="315.535" y1="294.084" x2="210.209" y2="162.009"/>
<line x1="277.945" y1="458.779" x2="172.618" y2="326.704"/>
<line x1="268.660" y1="235.305" x2="163.334" y2="103.231"/>
<line x1="231.070" y1="400.000" x2="125.744" y2="267.925"/>
<line x1="163.334" y1="367.380" x2="58.008" y2="235.305"/>
<line x1="125.744" y1="532.075" x2="20.418" y2="400.000"/>
<line x1="779.582" y1="400.000" x2="741.992" y2="235.305"/>
<line x1="741.992" y1="564.695" x2="704.401" y2="400.000"/>
<line x1="674.256" y1="532.075" x2="636.666" y2="367.380"/>
<line x1="636.666" y1="696.769" x2="599.075" y2="532.075"/>
<line x1="627.382" y1="473.296" x2="589.791" y2="308.601"/>
<line x1="589.791" y1="637.991" x2="552.201" y2="473.296"/>
<line x1="522.055" y1="605.371" x2="484.465" y2="440.676"/>
<line x1="484.465" y1="770.065" x2="446.875" y2="605.371"/>
<line x1="610.652" y1="400.000" x2="573.062" y2="235.305"/>
<line x1="573.062" y1="564.695" x2="535.471" y2="400.000"/>
<line x1="505.326" y1="532.075" x2="467.736" y2="367.380"/>
<line x1="467.736" y1="696.769" x2="430.145" y2="532.075"/>
<line x1="458.452" y1="473.296" x2="420.861" y2="308.601"/>
<line x1="420.861" y1="637.991" x2="383.271" y2="473.296"/>
<line x1="353.125" y1="605.371" x2="315.535" y2="440.676"/>
<line x1="315.535" y1="770.065" x2="277.945" y2="605.371"/>
<line x1="627.382" y1="326.704" x2="589.791" y2="162.009"/>
<line x1="589.791" y1="491.399" x2="552.201" y2="326.704"/>
<line x1="522.055" y1="458.779" x2="484.465" y2="294.084"/>
<line x1="484.465" y1="623.473" x2="446.875" y2="458.779"/>
<line x1="475.181" y1="400.000" x2="437.590" y2="235.305"/>
<line x1="437.590" y1="564.695" x2="400.000" y2="400.000"/>
<line x1="369.855" y1="532.075" x2="332.264" y2="367.380"/>
<line x1="332.264" y1="696.769" x2="294.674" y2="532.075"/>
<line x1="458.452" y1="326.704" x2="420.861" y2="162.009"/>
<line x1="420.861" y1="491.399" x2="383.271" y2="326.704"/>
<line x1="353.125" y1="458.779" x2="315.535" y2="294.084"/>
<line x1="315.535" y1="623.473" x2="277.945" y2="458.779"/>
<line x1="306.251" y1="400.000" x2="268.660" y2="235.305"/>
<line x1="268.660" y1="564.695" x2="231.070" y2="400.000"/>
<line x1="200.925" y1="532.075" x2="163.334" y2="367.380"/>
<line x1="163.334" y1="696.769" x2="125.744" y2="532.075"/>
<line x1="674.256" y1="267.925" x2="636.666" y2="103.231"/>
<line x1="636.666" y1="432.620" x2="599.075" y2="267.925"/>
<line x1="568.930" y1="400.000" x2="531.340" y2="235.305"/>
<line x1="531.340" y1="564.695" x2="493.749" y2="400.000"/>
<line x1="522.055" y1="341.221" x2="484.465" y2="176.527"/>
<line x1="484.465" y1="505.916" x2="446.875" y2="341.221"/>
<line x1="416.729" y1="473.296" x2="379.139" y2="308.601"/>
<line x1="379.139" y1="637.991" x2="341.548" y2="473.296"/>
<line x1="505.326" y1="267.925" x2="467.736" y2="103.231"/>
<line x1="467.736" y1="432.620" x2="430.145" y2="267.925"/>
<line x1="400.000" y1="400.000" x2="362.410" y2="235.305"/>
<line x1="362.410" y1="564.695" x2="324.819" y2="400.000"/>
<line x1="353.125" y1="341.221" x2="315.535" y2="176.527"/>
<line x1="315.535" y1="505.916" x2="277.945" y2="341.221"/>
<line x1="247.799" y1="473.296" x2="210.209" y2="308.601"/>
<line x1="210.209" y1="637.991" x2="172.618" y2="473.296"/>
<line x1="522.055" y1="194.629" x2="484.465" y2="29.935"/>
<line x1="484.465" y1="359.324" x2="446.875" y2="194.629"/>
<line x1="416.729" y1="326.704" x2="379.139" y2="162.009"/>
<line x1="379.139" y1="491.399" x2="341.548" y2="326.704"/>
<line x1="369.855" y1="267.925" x2="332.264" y2="103.231"/>
<line x1="332.264" y1="432.620" x2="294.674" y2="267.925"/>
<line x1="264.529" y1="400.000" x2="226.938" y2="235.305"/>
<line x1="226.938" y1="564.695" x2="189.348" y2="400.000"/>
<line x1="353.125" y1="194.629" x2="315.535" y2="29.935"/>
<line x1="315.535" y1="359.324" x2="277.945" y2="194.629"/>
<line x1="247.799" y1="326.704" x2="210.209" y2="162.009"/>
<line x1="210.209" y1="491.399" x2="172.618" y2="326.704"/>
<line x1="200.925" y1="267.925" x2="163.334" y2="103.231"/>
<line x1="163.334" y1="432.620" x2="125.744" y2="267.925"/>
<line x1="95.599" y1="400.000" x2="58.008" y2="235.305"/>
<line x1="58.008" y1="564.695" x2="20.418" y2="400.000"/>
</g>
<g style="stroke:#000000;stroke-width:2;fill:#ff0000">
<circle cx="779.582" cy="400.000" r="7"/>
<circle cx="741.992" cy="564.695" r="7"/>
<circle cx="674.256" cy="532.075" r="7"/>
<circle cx="636.666" cy="696.769" r="7"/>
<circle cx="627.382" cy="473.296" r="7"/>
<circle cx="589.791" cy="637.991" r="7"/>
<circle cx="522.055" cy="605.371" r="7"/>
<circle cx="484.465" cy="770.065" r="7"/>
<circle cx="610.652" cy="400.000" r="7"/>
<circle cx="573.062" cy="564.695" r="7"/>
<circle cx="505.326" cy="532.075" r="7"/>
<circle cx="467.736" cy="696.769" r="7"/>
<circle cx="458.452" cy="473.296" r="7"/>
<circle cx="420.861" cy="637.991" r="7"/>
<circle cx="353.125" cy="605.371" r="7"/>
<circle cx="315.535" cy="770.065" r="7"/>
<circle cx="627.382" cy="326.704" r="7"/>
<circle cx="589.791" cy="491.399" r="7"/>
<circle cx="522.055" cy="458.779" r="7"/>
<circle cx="484.465" cy="623.473" r="7"/>
<circle cx="475.181" cy="400.000" r="7"/>
<circle cx="437.590" cy="564.695" r="7"/>
<circle cx="369.855" cy="532.075" r="7"/>
<circle cx="332.264" cy="696.769" r="7"/>
<circle cx="458.452" cy="326.704" r="7"/>
<circle cx="420.861" cy="491.399" r="7"/>
<circle cx="353.125" cy="458.779" r="7"/>
<circle cx="315.535" cy="623.473" r="7"/>
<circle cx="306.251" cy="400.000" r="7"/>
<circle cx="268.660" cy="564.695" r="7"/>
<circle cx="200.925" cy="532.075" r="7"/>
<circle cx="163.334" cy="696.769" r="7"/>
<circle cx="674.256" cy="267.925" r="7"/>
<circle cx="636.666" cy="432.620" r="7"/>
<circle cx="568.930" cy="400.000" r="7"/>
<circle cx="531.340" cy="564.695" r="7"/>
<circle cx="522.055" cy="341.221" r="7"/>
<circle cx="484.465" cy="505.916" r="7"/>
<circle cx="416.729" cy="473.296" r="7"/>
<circle cx="379.139" cy="637.991" r="7"/>
<circle cx="505.326" cy="267.925" r="7"/>
<circle cx="467.736" cy="432.620" r="7"/>
<circle cx="362.410" cy="564.695" r="7"/>
<circle cx="353.125" cy="341.221" r="7"/>
<circle cx="315.535" cy="505.916" r="7"/>
<circle cx="247.799" cy="473.296" r="7"/>
<circle cx="210.209" cy="637.991" r="7"/>
<circle cx="522.055" cy="194.629" r="7"/>
<circle cx="484.465" cy="359.324" r="7"/>
<circle cx="416.729" cy="326.704" r="7"/>
<circle cx="379.139" cy="491.399" r="7"/>
<circle cx="369.855" cy="267.925" r="7"/>
<circle cx="332.264" cy="432.620" r="7"/>
<circle cx="264.529" cy="400.000" r="7"/>
<circle cx="226.938" cy="564.695" r="7"/>
<circle cx="353.125" cy="194.629" r="7"/>
<circle cx="315.535" cy="359.324" r="7"/>
<circle cx="247.799" cy="326.704" r="7"/>
<circle cx="210.209" cy="491.399" r="7"/>
<circle cx="200.925" cy="267.925" r="7"/>
<circle cx="163.334" cy="432.620" r="7"/>
<circle cx="95.599" cy="400.000" r="7"/>
<circle cx="58.008" cy="564.695" r="7"/>
<circle cx="741.992" cy="235.305" r="7"/>
<circle cx="704.401" cy="400.000" r="7"/>
<circle cx="636.666" cy="367.380" r="7"/>
<circle cx="599.075" cy="532.075" r="7"/>
<circle cx="589.791" cy="308.601" r="7"/>
<circle cx="552.201" cy="473.296" r="7"/>
<circle cx="484.465" cy="440.676" r="7"/>
<circle cx="446.875" cy="605.371" r="7"/>
<circle cx="573.062" cy="235.305" r="7"/>
<circle cx="535.471" cy="400.000" r="7"/>
<circle cx="467.736" cy="367.380" r="7"/>
<circle cx="430.145" cy="532.075" r="7"/>
<circle cx="420.861" cy="308.601" r="7"/>
<circle cx="383.271" cy="473.296" r="7"/>
<circle cx="315.535" cy="440.676" r="7"/>
<circle cx="277.945" cy="605.371" r="7"/>
<circle cx="589.791" cy="162.009" r="7"/>
<circle cx="552.201" cy="326.704" r="7"/>
<circle cx="484.465" cy="294.084" r="7"/>
<circle cx="446.875" cy="458.779" r="7"/>
<circle cx="437.590" cy="235.305" r="7"/>
<circle cx="332.264" cy="367.380" r="7"/>
<circle cx="294.674" cy="532.075" r="7"/>
<circle cx="420.861" cy="162.009" r="7"/>
<circle cx="383.271" cy="326.704" r="7"/>
<circle cx="315.535" cy="294.084" r="7"/>
<circle cx="277.945" cy="458.779" r="7"/>
<circle cx="268.660" cy="235.305" r="7"/>
<circle cx="231.070" cy="400.000" r="7"/>
<circle cx="163.334" cy="367.380" r="7"/>
<circle cx="125.744" cy="532.075" r="7"/>
<circle cx="636.666" cy="103.231" r="7"/>
<circle cx="599.075" cy="267.925" r="7"/>
<circle cx="531.340" cy="235.305" r="7"/>
<circle cx="493.749" cy="400.000" r="7"/>
<circle cx="484.465" cy="176.527" r="7"/>
<circle cx="446.875" cy="341.221" r="7"/>
<circle cx="379.139" cy="308.601" r="7"/>
<circle cx="341.548" cy="473.296" r="7"/>
<circle cx="467.736" cy="103.231" r="7"/>
<circle cx="430.145" cy="267.925" r="7"/>
<circle cx="362.410" cy="235.305" r="7"/>
<circle cx="324.819" cy="400.000" r="7"/>
<circle cx="315.535" cy="176.527" r="7"/>
<circle cx="277.945" cy="341.221" r="7"/>
<circle cx="210.209" cy="308.601" r="7"/>
<circle cx="172.618" cy="473.296" r="7"/>
<circle cx="484.465" cy="29.935" r="7"/>
<circle cx="446.875" cy="194.629" r="7"/>
<circle cx="379.139" cy="162.009" r="7"/>
<circle cx="341.548" cy="326.704" r="7"/>
<circle cx="332.264" cy="103.231" r="7"/>
<circle cx="294.674" cy="267.925" r="7"/>
<circle cx="226.938" cy="235.305" r="7"/>
<circle cx="189.348" cy="400.000" r="7"/>
<circle cx="315.535" cy="29.935" r="7"/>
<circle cx="277.945" cy="194.629" r="7"/>
<circle cx="210.209" cy="162.009" r="7"/>
<circle cx="172.618" cy="326.704" r="7"/>
<circle cx="163.334" cy="103.231" r="7"/>
<circle cx="125.744" cy="267.925" r="7"/>
<circle cx="58.008" cy="235.305" r="7"/>
<circle cx="20.418" cy="400.000" r="7"/>
</g>
<g style="stroke:#000000;stroke-width:2;fill:#ff7f00">
<circle cx="400.000" cy="400.000" r="7"/>
</g>
</svg>
